<?xml version="1.0" encoding="UTF-8" standalone="no"?>
<svg
   xmlns:xml="http://www.w3.org/XML/1998/namespace"
   xmlns:svg="http://www.w3.org/2000/svg"
   xmlns="http://www.w3.org/2000/svg"
   xmlns:xlink="http://www.w3.org/1999/xlink"
   xml:space="preserve"
   viewBox="0 0 402.5786133 542.472168"
   width="402.5786133"
   height="542.472168"
   version="1.0">
  <!--
  Based on:
  [1] http://commons.wikimedia.org/wiki/File:Coat_of_arms_of_Hesse.svg
  [2] http://commons.wikimedia.org/wiki/File:Map_of_Hesse_with_districts_%28blank%29.svg?uselang=de
  [3] http://commons.wikimedia.org/wiki/File:Landkreise_Hessen.svg?uselang=de 
  Lizenz: [1] Public Domain, [2] GFDL 1.2 (no invariant sections)
  This places this document under the GFDL 1.2, also.  However, any contributions made here to these two
  documents are hereby placed in the public domain.  This means that
  if you remove the text labels from this document, the result is a
  public domain document.


  1: Bergstraße
  2: Main-Kinzig-Kreis
  3: Darmstadt-Dieburg
  4: Rheingau-Taunus-Kreis
  5: Limburg-Weilburg
  6: Waldeck-Frankenberg
  7: Groß-Gerau
  8: Wiesbaden (Kreisfreie Stadt)
  9: Odenwaldkreis
  10: Offenbach
  11: Kassel
  12: Schwalm-Eder-Kreis
  13: Werra-Meißner-Kreis
  14: Hersfeld-Rotenburg
  15: Kassel (Kreisfreie Stadt)
  16: Marburg-Biedenkopf
  17: Lahn-Dill-Kreis
  18: Gießen
  19: Vogelsbergkreis
  20: Main-Taunus-Kreis
  21: Frankfurt am Main (Kreisfreie Stadt)
  22: Offenbach am Main (Kreisfreie Stadt)
  23: Darmstadt (Kreisfreie Stadt)
  24: Wetteraukreis
  25: Hochtaunuskreis
  26: Fulda

  hlbfd "HLB Fulda": Fulda (26)
  hlbrm "HLB RheinMain": Lahn-Dill-Kreis (17),
        Limburg-Weilburg (5), Hochtaunuskreis (25),
        Rheingau-Taunus-Kreis (4), Wiesbaden (8), Main-Taunus-Kreis (20),
        Main-Kinzig-Kreis (2)
  ulbda "ULB Darmstadt": Vogelsbergkreis (19),
          Gießen (18), Wetteraukreis (24),
          Offenbach am Main (22), Offenbach (10),
          Darmstadt (3), Darmstadt-Dieburg (23),
          Groß-Gerau (7), Bergstraße (1), Odenwaldkreis (9)
  ubffm "UB Frankfurt": Frankfurt am Main (21)
  ubkl "UB Kassel": Kassel (11), Kassel (Stadt, 15), Waldeck-Frankenberg (6),
      Marburg-Biedenkopf (16), Schwalm-Eder-Kreis (12),
      Werra-Meißner-Kreis (13), Hersfeld-Rotenburg (14)
  -->
<style type="text/css">
    text
    {
      /* Make sure overlay text does not interfere with hover.  */
      pointer-events: none;
    }

    g > polyline:hover {
    	cursor:pointer;
    }
    g > polyline {
      -webkit-transition: fill .4s ease;
      -moz-transition: fill .4s ease;
      -o-transition: fill .4s ease;
      transition: fill .4s ease;
      fill: white !important;
    }    
    #g_hlbfd:hover > .hlbfd
    {
      fill: #FFBBBB !important;
    }
    #g_hlbrm:hover > .hlbrm
    {
      fill: #FFBBBB !important;
    }
    #g_ulbda:hover > .ulbda
    {
      fill: #FFBBBB !important;
    }
    #g_ubffm:hover > .ubffm
    {
      fill: #FFBBBB !important;
    }
    #g_ubkl:hover > .ubkl
    {
      fill: #FFBBBB !important;
    }
    
</style>
<image
   y="7.1597285"
   x="7.9652739"
   id="image3149"
   xlink:href="99px-Coat_of_arms_of_Hesse.svg.png"
   height="119"
   width="99" />

<polyline id="Border_of_Hesse" style="fill:none;stroke:#000000;stroke-width:2;" points="115.4477539,165.5229492 
		111.9125977,169.0571289 111.9125977,174.824707 107.2612305,178.3598633 101.4946289,184.1274414 95.5405273,192.3129883 
		89.7729492,193.6157227 85.1225586,188.7797852 79.3540039,190.0805664 72.284668,196.9643555 68.7504883,198.2680664 
		64.0991211,202.918457 58.3305664,208.6860352 59.4477539,214.4536133 62.9829102,219.1049805 62.9829102,223.9418945 
		58.3305664,232.128418 54.7963867,233.2446289 55.9125977,239.0112305 60.5639648,246.081543 58.3305664,251.8481445 
		62.7963867,254.081543 59.262207,258.918457 58.1450195,263.5698242 55.7260742,268.2211914 48.6567383,267.1049805 
		45.121582,264.6860352 38.0512695,271.7563477 34.7036133,278.6401367 36.9360352,285.7094727 38.0512695,290.3598633 
		35.8188477,292.7797852 33.4008789,297.4301758 31.1674805,299.6625977 35.8188477,302.081543 39.3540039,300.965332 
		40.4702148,304.3149414 45.121582,308.4067383 47.5415039,310.4536133 49.9594727,312.4995117 51.0756836,317.1508789 
		53.3081055,319.5698242 58.1450195,328.871582 55.9125977,334.6401367 52.5639648,335.9418945 49.0288086,333.5229492 
		46.6098633,332.4067383 43.0756836,334.6401367 45.4946289,339.2915039 45.4946289,341.7094727 39.7260742,344.128418 
		36.1918945,340.5922852 33.7729492,340.5922852 24.4711914,346.3598633 17.4008789,352.1274414 19.8198242,360.3149414 
		24.4711914,362.7329102 24.4711914,366.2661133 22.0532227,373.1508789 18.7026367,368.4995117 16.284668,368.4995117 
		11.6333008,366.2661133 8.0991211,373.1508789 8.0991211,376.6860352 4.5639648,377.8012695 1.215332,383.7563477 
		9.2143555,393.0581055 12.7504883,395.4770508 15.168457,402.3598633 17.4008789,404.7797852 29.1225586,402.3598633 
		40.8432617,396.5922852 52.5639648,393.0581055 60.5639648,390.6391602 71.168457,388.4067383 76.9360352,390.824707 
		85.1225586,396.5922852 88.284668,401.0581055 90.8891602,404.5932617 92.0063477,409.0581055 93.3071289,413.8950195 
		94.4243164,419.8481445 94.4243164,425.6166992 97.9594727,433.8012695 97.9594727,439.5698242 100.190918,445.3364258 
		102.6098633,452.4067383 111.9125977,453.5239258 114.3305664,455.7553711 110.7963867,460.4077148 107.2612305,465.0581055 
		102.6098633,467.4770508 97.9594727,468.5922852 95.5405273,471.0112305 97.4008789,477.1508789 100.190918,487.1987305 
		103.7270508,491.8491211 105.0288086,497.8022461 109.6791992,496.6860352 113.215332,495.3833008 115.4477539,498.918457 
		120.0991211,498.918457 130.7026367,511.7553711 135.3540039,511.7553711 138.8891602,508.2202148 138.331543,503.7553711 
		137.5864258,496.6860352 138.8891602,489.6157227 148.1918945,486.0805664 149.3071289,487.1987305 148.1918945,488.5004883 
		150.4243164,490.7319336 149.8666992,492.5932617 149.3071289,494.2670898 149.3071289,496.6860352 150.4243164,502.4536133 
		153.9594727,504.6850586 158.6098633,509.5219727 163.2612305,509.5219727 169.215332,511.7553711 172.5639648,509.5219727 
		174.9819336,514.1733398 179.6333008,515.2905273 184.2836914,512.871582 185.4008789,515.2905273 184.2836914,519.9428711 
		178.5180664,519.9428711 177.2143555,522.3598633 176.0991211,530.5463867 174.9819336,530.5463867 173.3081055,533.3374023 
		171.4477539,536.3139648 172.5639648,539.8491211 174.9819336,538.5473633 176.0991211,540.9643555 184.2836914,535.1977539 
		184.2836914,531.6616211 186.1450195,529.8022461 187.8198242,528.1264648 188.9360352,530.5463867 191.168457,529.8022461 
		193.4008789,529.2446289 195.8188477,525.7094727 193.4008789,522.1733398 195.4477539,517.1508789 196.9360352,512.871582 
		201.7729492,512.871582 205.6801758,513.4291992 209.5864258,513.987793 209.7729492,513.987793 212.0053711,508.2202148 
		212.190918,508.2202148 215.5405273,510.4545898 215.5405273,510.6401367 219.074707,510.6401367 221.3071289,513.0571289 
		225.0297852,510.6401367 223.7260742,507.1049805 220.3774414,504.6850586 219.074707,501.1518555 215.5405273,500.0336914 
		216.8422852,496.5004883 220.3774414,498.918457 220.3774414,496.5004883 216.8422852,490.7319336 213.3081055,487.1987305 
		213.3081055,484.9643555 219.074707,480.3139648 218.5170898,476.2202148 217.9594727,472.128418 219.074707,468.5922852 
		222.6108398,468.5922852 225.0297852,461.7084961 224.8432617,455.9418945 225.0297852,455.7553711 222.6108398,453.5239258 
		222.6108398,449.987793 225.0297852,448.871582 225.0297852,446.4536133 222.6108398,445.3364258 217.9594727,446.4536133 
		215.5405273,437.1508789 212.190918,436.034668 209.7729492,432.6860352 209.5864258,427.1040039 208.4711914,423.012207 
		207.5405273,418.7329102 205.121582,409.4301758 206.2387695,403.8481445 207.5405273,396.5922852 206.2387695,390.824707 
		202.7026367,384.871582 201.7729492,377.987793 207.5405273,369.8032227 214.6098633,368.6860352 219.2602539,365.1508789 
		226.3305664,369.8032227 227.4477539,372.034668 231.3549805,369.0571289 235.6333008,362.7329102 239.168457,361.6157227 
		243.8198242,362.7329102 252.0053711,364.034668 256.6557617,361.6157227 262.4243164,365.1508789 267.0756836,368.6860352 
		268.9350586,370.3598633 271.7260742,373.3364258 277.6791992,373.3364258 284.5649414,370.918457 286.9819336,368.6860352 
		286.9819336,362.7329102 287.5395508,361.6157227 289.215332,358.081543 284.5649414,353.4301758 284.5649414,351.1977539 
		286.9819336,347.6625977 283.4467773,341.7094727 284.5649414,338.3598633 291.6333008,340.5922852 297.3999023,340.5922852 
		299.4477539,341.5239258 305.5864258,339.4770508 309.121582,339.4770508 308.0063477,333.5229492 316.1928711,327.7563477 
		321.9594727,321.987793 324.3774414,319.5698242 321.9594727,310.2680664 325.3071289,302.081543 325.3071289,295.012207 
		328.0981445,294.824707 332.3774414,293.8950195 337.0288086,298.5463867 345.215332,297.4301758 348.7504883,297.4301758 
		355.6333008,293.8950195 359.7270508,290.918457 364.9360352,287.0112305 369.5874023,281.0581055 373.1225586,271.7563477 
		373.1225586,249.6157227 372.0063477,246.081543 373.1225586,244.965332 377.7729492,243.6625977 376.6577148,237.8950195 
		373.1225586,233.2446289 364.9360352,233.2446289 358.0532227,236.7797852 358.0532227,239.0112305 359.1694336,241.4301758 
		356.7485352,243.6625977 350.9829102,242.5463867 346.3305664,244.965332 346.3305664,233.2446289 350.9829102,229.7094727 
		349.8666992,228.034668 348.7504883,226.1743164 350.9829102,222.8266602 353.4018555,215.7543945 352.0981445,213.3364258 
		350.9829102,212.2211914 355.6333008,207.5698242 354.5180664,204.034668 356.7485352,200.5004883 355.6333008,199.3833008 
		360.284668,195.8481445 367.3549805,194.730957 369.5874023,192.3129883 367.3549805,190.0805664 366.2368164,187.6625977 
		370.3305664,182.4536133 372.0063477,180.777832 364.9360352,176.1274414 362.7045898,177.2446289 361.5864258,177.2446289 
		360.284668,172.5932617 356.7485352,173.7094727 355.6333008,170.1743164 359.1694336,169.0571289 370.8891602,169.0571289 
		370.8891602,166.6391602 368.4711914,163.2915039 366.2368164,158.6391602 367.3549805,152.6860352 376.6577148,151.5698242 
		385.9594727,152.6860352 394.144043,152.6860352 395.262207,146.918457 390.6118164,142.2680664 384.8422852,139.8481445 
		385.9594727,131.6625977 388.3774414,128.1274414 386.331543,126.081543 383.7260742,124.7783203 382.4243164,121.2441406 
		384.8422852,119.9418945 387.262207,118.8251953 390.6118164,121.2441406 391.9125977,125.8955078 395.262207,127.0112305 
		395.262207,119.9418945 396.5639648,116.5932617 401.215332,113.0571289 398.7954102,109.5239258 393.2143555,108.4067383 
		387.262207,107.1049805 382.4243164,103.7548828 379.0756836,103.7548828 373.1225586,100.2207031 372.0063477,97.8027344 
		368.4711914,95.5698242 370.8891602,93.1508789 368.4711914,88.5004883 364.0063477,87.9423828 359.1694336,87.3833008 
		356.7485352,86.2675781 350.9829102,82.7324219 352.8422852,80.871582 354.5180664,79.1977539 349.8666992,69.8955078 
		348.7504883,62.8251953 345.215332,55.7558594 342.7954102,55.7558594 341.6801758,59.2900391 338.1450195,58.1743164 
		338.1450195,65.2441406 337.0288086,66.3598633 333.4936523,58.1743164 332.3774414,58.1743164 327.7260742,62.8251953 
		323.0756836,63.9418945 314.8891602,69.8955078 318.237793,75.6625977 319.5405273,78.0805664 324.190918,79.1977539 
		325.3071289,81.4301758 318.237793,84.9643555 312.4711914,82.7324219 307.8198242,80.3134766 305.4008789,82.7324219 
		302.0512695,80.3134766 299.6333008,80.3134766 297.3999023,78.0805664 291.4477539,75.6625977 291.4477539,71.0112305 
		290.3305664,68.5922852 290.3305664,63.9418945 297.3999023,61.7089844 302.0512695,58.1743164 302.0512695,53.5239258 
		303.1694336,51.1049805 302.0512695,49.987793 300.7495117,44.2211914 293.8666992,39.5698242 293.8666992,32.5004883 
		299.6333008,27.8486328 297.3999023,24.3134766 302.0512695,24.3134766 302.0512695,23.1977539 298.5180664,19.6625977 
		299.6333008,17.4301758 302.0512695,17.4301758 305.4008789,20.7792969 308.9360352,18.5463867 303.1694336,15.0112305 
		299.6333008,11.4770508 298.7036133,6.4526367 297.3999023,5.7089844 292.5629883,7.9418945 287.9116211,5.7089844 
		286.7954102,3.2900391 282.1450195,6.8261719 281.0288086,4.5932617 278.6088867,1.0581055 268.190918,2.1743164 
		268.190918,6.8261719 254.0522461,11.4770508 256.4702148,16.128418 250.7036133,25.4306641 247.1674805,32.5004883 
		242.5170898,34.9189453 241.4008789,37.1508789 233.2143555,40.6855469 234.3305664,44.2211914 234.3305664,48.8720703 
		229.6801758,47.7548828 227.2612305,47.7548828 225.0297852,54.6391602 221.121582,53.5239258 214.4243164,52.4067383 
		210.8891602,45.3369141 212.190918,40.6855469 206.2387695,38.2675781 201.5874023,36.034668 192.284668,40.6855469 
		184.2836914,44.2211914 186.7026367,52.4067383 190.0522461,54.6391602 191.168457,58.1743164 188.9360352,63.9418945 
		184.2836914,64.6860352 179.6333008,65.2441406 174.9819336,68.5922852 172.5639648,65.2441406 166.7963867,65.2441406 
		161.0288086,68.5922852 157.4946289,66.3598633 155.0756836,67.4770508 151.7260742,67.4770508 144.6567383,75.6625977 
		140.0053711,76.7792969 137.5864258,79.1977539 135.3540039,83.8486328 132.9360352,87.3833008 128.2836914,89.6157227 
		129.4008789,96.6855469 135.3540039,97.8027344 140.0053711,96.6855469 142.237793,94.2666016 152.8422852,92.034668 
		155.0756836,94.2666016 155.0756836,101.3369141 161.0288086,107.1049805 160.8422852,111.3837891 159.7270508,118.8251953 
		155.0756836,121.2441406 151.7260742,125.8955078 153.9594727,129.4301758 153.9594727,131.6625977 142.237793,135.1977539 
		135.3540039,134.0805664 131.8198242,136.3129883 125.8657227,132.7797852 120.0991211,137.6157227 122.5180664,142.2680664 
		120.0991211,144.5004883 118.9819336,146.918457 123.6333008,148.034668 123.6333008,152.6860352 115.4477539,165.5229492 "/>
	<g id="g_ulbda">
	  
	<polyline id="hessen1" class="ulbda" style="fill-rule:evenodd;clip-rule:evenodd;fill:#EBEBEB;stroke:#000000;" points="114.3310547,455.7553711 
		116.5639648,462.8256836 122.5175781,462.8256836 124.7495117,463.9418945 127.168457,460.4077148 141.1225586,458.1743164 
		144.6567383,462.8256836 148.1918945,460.4077148 148.1918945,456.871582 152.8427734,454.6391602 157.4941406,459.2905273 
		157.8662109,461.5229492 166.7963867,460.4077148 172.5639648,455.7553711 166.7963867,460.5932617 169.215332,465.0581055 
		169.215332,467.4770508 166.7963867,468.5922852 166.7963867,469.7094727 172.5639648,472.128418 174.9819336,475.1040039 
		177.2143555,477.8950195 180.7495117,477.8950195 183.168457,479.012207 179.6333008,480.3139648 182.0522461,483.8491211 
		182.0522461,486.0805664 184.2841797,489.6157227 182.0522461,489.6157227 183.168457,493.1508789 184.2841797,495.3833008 
		182.0522461,498.918457 183.168457,500.0336914 184.2841797,501.3374023 184.2841797,504.6850586 183.168457,508.2202148 
		184.2841797,512.871582 185.4013672,515.2905273 184.2841797,519.9428711 193.4003906,522.3598633 195.8193359,525.7094727 
		193.4003906,529.2446289 191.168457,529.8022461 188.9355469,530.5463867 187.8198242,528.1264648 186.1450195,529.8022461 
		184.2841797,531.6616211 184.2841797,535.1977539 176.0991211,540.9643555 174.9819336,538.5473633 172.5639648,539.8491211 
		171.4472656,536.3139648 173.3081055,533.3374023 174.9819336,530.5463867 176.0991211,530.5463867 177.2143555,522.3598633 
		178.5175781,519.9428711 184.2841797,519.9428711 185.4013672,515.2905273 184.2841797,512.871582 179.6333008,515.2905273 
		174.9819336,514.1733398 172.5639648,509.5219727 169.215332,511.7553711 163.2612305,509.5219727 158.6098633,509.5219727 
		153.9589844,504.6850586 150.4248047,502.4536133 149.3076172,496.6860352 149.3076172,494.2670898 149.8666992,492.5932617 
		150.4248047,490.7319336 148.1918945,488.5004883 149.3076172,487.1987305 148.1918945,486.0805664 138.8896484,489.6157227 
		137.5864258,496.6860352 138.331543,503.7553711 138.8896484,508.2202148 135.3544922,511.7553711 130.7026367,511.7553711 
		120.0991211,498.918457 115.4482422,498.918457 113.215332,495.3833008 109.6791992,496.6860352 105.0288086,497.8022461 
		103.7270508,491.8491211 100.190918,487.1987305 97.4013672,477.1508789 95.5405273,471.0112305 97.9589844,468.5922852 
		102.6098633,467.4770508 107.2612305,465.0581055 110.7963867,460.4077148 114.3310547,455.7553711 "/>
	<polyline id="hessen3" class="ulbda" style="fill-rule:evenodd;clip-rule:evenodd;fill:#EBEBEB;stroke:#000000;" points="140.0053711,404.7797852 
		134.0522461,404.7797852 131.8198242,409.4301758 128.2841797,410.5463867 128.2841797,415.1977539 125.8662109,415.1977539 
		127.168457,420.965332 129.4013672,422.0805664 128.2841797,425.6166992 122.5175781,428.034668 124.190918,432.6860352 
		125.8662109,437.3364258 124.7495117,445.3364258 123.6333008,448.871582 128.2841797,452.4067383 127.7260742,456.4995117 
		127.168457,460.4077148 141.1225586,458.1743164 144.6567383,462.8256836 148.1918945,460.4077148 148.1918945,456.871582 
		152.8427734,454.6391602 156.190918,457.9887695 157.4941406,459.2905273 157.8662109,461.5229492 166.7963867,460.5932617 
		172.3779297,455.9418945 174.9819336,449.987793 179.6333008,444.2211914 182.0522461,446.4536133 187.8198242,446.4536133 
		188.9355469,444.2211914 193.4003906,444.2211914 193.4003906,445.3364258 195.8193359,444.2211914 196.9365234,439.5698242 
		201.5874023,438.4536133 202.7026367,434.918457 202.7026367,431.3833008 212.190918,436.034668 209.7729492,432.6860352 
		209.5864258,427.1040039 208.4707031,423.012207 207.5405273,418.7329102 205.121582,409.4301758 206.2387695,403.8481445 
		207.5405273,396.5922852 202.7026367,397.7094727 197.4941406,396.5922852 192.284668,395.4770508 185.4013672,403.6625977 
		180.7495117,403.6625977 176.0991211,407.012207 172.5639648,408.3129883 169.7729492,407.012207 166.7963867,405.8950195 
		159.7270508,407.012207 157.4941406,405.7094727 155.0756836,407.012207 155.0756836,407.1977539 145.7729492,408.3129883 
		138.8896484,401.2446289 140.0053711,404.7797852 "/>
	<polyline id="hessen7" class="ulbda" style="fill-rule:evenodd;clip-rule:evenodd;fill:#EBEBEB;stroke:#000000;" points="85.1225586,396.5922852 
		90.8886719,396.5922852 93.6791992,396.034668 96.8432617,396.5922852 97.7729492,396.5922852 100.9355469,397.1508789 
		103.7270508,397.7094727 106.1459961,395.2915039 110.7963867,391.9418945 114.3310547,386.1743164 116.5639648,386.1743164 
		117.121582,385.6166992 122.5175781,380.2211914 120.4707031,382.2680664 127.168457,381.5239258 128.2841797,382.6391602 
		128.2841797,384.871582 123.6333008,387.2895508 121.2143555,389.5229492 122.5175781,391.9418945 130.7026367,389.7094727 
		132.9355469,391.9418945 135.3544922,397.7094727 138.8896484,401.2446289 140.0053711,404.7797852 134.0522461,404.7797852 
		131.8198242,409.4301758 128.2841797,410.5463867 128.2841797,415.1977539 125.8662109,415.1977539 127.168457,420.965332 
		129.4013672,422.0805664 128.2841797,425.6166992 122.5175781,428.034668 125.8662109,437.1508789 124.7495117,445.3364258 
		123.6333008,448.871582 128.2841797,452.4067383 127.168457,460.4077148 124.7495117,463.9418945 122.5175781,462.8256836 
		116.5639648,462.8256836 114.3310547,455.7553711 111.9121094,453.5239258 102.6098633,452.4067383 100.190918,445.3364258 
		97.9589844,439.5698242 97.9589844,433.8012695 94.4248047,425.6166992 94.4248047,419.8481445 93.3076172,413.8950195 
		92.0058594,409.0581055 90.8886719,404.5932617 88.284668,401.0581055 85.1225586,396.5922852 "/>
	<polyline id="hessen9" class="ulbda" style="fill-rule:evenodd;clip-rule:evenodd;fill:#EBEBEB;stroke:#000000;" points="212.0053711,436.034668 
		202.7026367,431.3833008 202.7026367,434.918457 201.5874023,438.4536133 196.9365234,439.5698242 195.8193359,444.2211914 
		193.4003906,445.3364258 193.4003906,444.2211914 188.9355469,444.2211914 187.8198242,446.6391602 187.8198242,446.4536133 
		182.0522461,446.4536133 179.6333008,444.2211914 174.9819336,449.987793 172.3779297,455.9418945 166.7963867,460.5932617 
		169.215332,465.0581055 169.215332,467.4770508 166.7963867,468.5922852 166.7963867,469.7094727 172.5639648,472.128418 
		177.2143555,477.8950195 180.7495117,477.8950195 183.168457,479.012207 179.6333008,480.3139648 182.0522461,483.8491211 
		182.0522461,486.0805664 184.2841797,489.6157227 182.0522461,489.6157227 183.168457,493.1508789 184.2841797,495.3833008 
		182.0522461,498.918457 184.2841797,501.1518555 184.2841797,504.6850586 183.168457,508.2202148 184.2841797,513.0571289 
		184.2841797,512.871582 185.4013672,515.2905273 184.2841797,519.9428711 193.4003906,522.1733398 195.4472656,517.1508789 
		196.9365234,512.871582 201.7729492,512.871582 205.6801758,513.4291992 209.5864258,513.987793 209.7729492,513.987793 
		212.0053711,508.2202148 212.190918,508.2202148 215.5405273,510.4545898 215.5405273,510.6401367 219.074707,510.6401367 
		221.3076172,513.0571289 225.0292969,510.6401367 223.7260742,507.1049805 220.3779297,504.6850586 219.074707,501.1518555 
		215.5405273,500.0336914 216.8427734,496.5004883 220.3779297,498.918457 220.3779297,496.5004883 216.8427734,490.7319336 
		213.3081055,487.1987305 213.3081055,484.9643555 219.074707,480.3139648 218.5170898,476.2202148 217.9589844,472.128418 
		219.074707,468.5922852 222.6108398,468.5922852 225.0292969,461.7084961 224.8432617,455.9418945 225.0292969,455.7553711 
		222.6108398,453.5239258 222.6108398,449.987793 225.0292969,448.871582 225.0292969,446.4536133 222.6108398,445.3364258 
		217.9589844,446.4536133 215.5405273,437.1508789 212.0053711,435.8481445 "/>
	<polyline id="hessen10" class="ulbda" style="fill-rule:evenodd;clip-rule:evenodd;fill:#EBEBEB;stroke:#000000;" points="172.5639648,375.5688477 
		173.8662109,376.871582 172.5639648,379.1049805 169.215332,380.2211914 162.1450195,384.871582 161.0288086,381.5239258 
		158.6098633,382.6391602 158.6098633,373.3364258 154.5175781,379.4770508 153.9589844,380.2211914 144.6567383,383.7563477 
		137.5864258,382.6391602 136.4707031,387.2895508 135.3544922,386.1743164 132.9355469,391.9418945 135.3544922,397.7094727 
		145.7729492,408.3129883 155.0756836,407.1977539 157.4941406,405.7094727 159.7270508,407.012207 166.7963867,405.8950195 
		172.5639648,408.3129883 176.0991211,407.012207 180.7495117,403.6625977 185.4013672,403.6625977 192.284668,395.4770508 
		198.0522461,396.777832 202.7026367,397.7094727 207.5405273,396.5922852 206.2387695,390.824707 202.7026367,384.871582 
		201.7729492,377.987793 196.9365234,377.4301758 192.284668,376.871582 191.168457,374.4536133 188.0058594,376.871582 
		186.8886719,380.2211914 180.9355469,376.871582 178.7036133,373.3364258 180.7495117,366.4536133 178.5175781,367.3833008 
		172.5639648,366.2661133 170.3310547,373.3364258 170.3310547,376.871582 172.5639648,375.5688477 "/>
	<polyline id="hessen18" class="ulbda" style="fill-rule:evenodd;clip-rule:evenodd;fill:#EBEBEB;stroke:#000000;" points="129.4013672,297.4306641 
		126.0522461,295.012207 123.6333008,285.7094727 126.0522461,283.4770508 126.0522461,281.0581055 128.2841797,281.0581055 
		128.2841797,278.6401367 130.7026367,278.6401367 132.9355469,276.4072266 138.8896484,277.5229492 141.1225586,273.9887695 
		143.5405273,273.9887695 142.237793,270.4536133 131.8198242,267.1049805 132.9355469,264.6860352 136.4707031,263.5698242 
		137.5864258,256.4995117 132.9355469,252.9643555 132.9355469,250.7329102 127.168457,246.081543 122.5175781,248.3134766 
		122.5175781,244.965332 123.6333008,237.8955078 126.0522461,237.8955078 132.9355469,232.128418 134.0522461,235.6625977 
		137.5864258,234.3598633 138.1450195,233.6157227 141.1225586,229.7089844 144.6567383,227.4770508 146.8886719,230.8251953 
		152.8427734,235.6625977 153.9589844,233.2441406 158.6098633,233.2441406 161.0288086,230.8251953 163.2612305,229.7089844 
		167.9121094,232.128418 170.3310547,228.5922852 177.2143555,228.5922852 178.5175781,229.7089844 183.168457,232.128418 
		186.7026367,229.7089844 185.4013672,226.1743164 186.5170898,224.3134766 188.9355469,229.1503906 192.284668,232.128418 
		194.7036133,234.3598633 194.7036133,241.4306641 191.168457,239.0112305 191.168457,241.4306641 192.284668,242.5463867 
		194.7036133,246.081543 198.0522461,246.081543 200.4702148,248.5004883 200.4702148,250.7329102 201.5874023,250.7329102 
		201.5874023,253.1518555 205.121582,253.1518555 207.5405273,255.3837891 208.6567383,254.2675781 210.8896484,256.4995117 
		209.7729492,257.8027344 215.5405273,261.1508789 219.074707,261.1508789 222.6108398,264.6860352 222.6108398,265.987793 
		217.9589844,267.1049805 216.8427734,271.7558594 212.190918,272.8720703 212.190918,271.7558594 207.5405273,276.4072266 
		204.0058594,278.8261719 199.3544922,278.8261719 196.9365234,287.0112305 194.7036133,288.128418 193.4003906,292.7792969 
		191.168457,293.8950195 186.7026367,291.6625977 183.168457,293.8950195 178.5175781,290.3603516 174.9819336,293.8950195 
		169.215332,293.8950195 166.7963867,289.2441406 169.215332,288.128418 166.7963867,283.4770508 164.5639648,283.4770508 
		163.2612305,285.7094727 157.4941406,281.0581055 152.8427734,283.4770508 150.4248047,281.0581055 144.6567383,281.0581055 
		141.1225586,283.4770508 141.1225586,285.7094727 136.4707031,285.7094727 130.7026367,291.6625977 134.0522461,292.7792969 
		129.4013672,297.4306641 "/>
	<polyline id="hessen19" class="ulbda" style="fill-rule:evenodd;clip-rule:evenodd;fill:#EBEBEB;stroke:#000000;" points="207.5405273,276.4072266 
		212.190918,271.7558594 212.190918,272.8720703 216.8427734,271.7558594 217.9589844,267.1049805 222.6108398,265.987793 
		222.6108398,264.6860352 219.074707,261.1508789 215.5405273,261.1508789 209.7729492,257.8027344 210.8896484,256.4995117 
		208.6567383,254.2675781 207.5405273,255.3837891 205.121582,253.1518555 201.5874023,253.1518555 201.5874023,250.7329102 
		200.4702148,250.7329102 200.4702148,248.5004883 198.0522461,246.081543 194.7036133,246.081543 192.4707031,242.918457 
		191.168457,241.4306641 191.168457,239.0112305 194.7036133,241.4306641 194.7036133,234.3598633 192.284668,232.128418 
		188.9355469,229.1503906 186.5170898,224.3134766 185.4013672,226.1743164 185.4013672,222.8261719 189.3076172,220.034668 
		196.0053711,214.4536133 199.3544922,212.2207031 202.7026367,209.987793 204.0058594,206.4526367 208.6567383,206.4526367 
		212.190918,202.918457 215.5405273,202.918457 216.8427734,198.2675781 219.074707,197.1503906 225.0292969,197.1503906 
		231.9130859,198.2675781 235.4472656,200.5004883 236.5639648,199.3833008 241.4013672,201.8017578 242.5170898,205.1508789 
		244.7495117,205.1508789 244.7495117,202.918457 252.9360352,202.918457 256.4702148,205.1508789 258.8891602,204.034668 
		260.0063477,205.1508789 261.121582,209.987793 261.3081055,209.987793 265.7739258,211.1040039 265.7739258,207.5698242 
		270.4243164,206.4526367 276.3774414,209.987793 276.3774414,211.1040039 283.2602539,215.7548828 282.1450195,217.987793 
		285.6801758,217.987793 292.5629883,212.2207031 299.6333008,214.6391602 300.7495117,219.2910156 303.1694336,219.2910156 
		304.284668,221.5229492 300.7495117,227.4770508 302.0512695,230.8251953 306.7016602,233.2441406 304.6567383,235.8486328 
		302.0512695,239.0112305 302.425293,239.7558594 305.4008789,244.965332 302.0512695,246.081543 298.5180664,250.7329102 
		294.9829102,247.1972656 291.4477539,247.1972656 290.3305664,245.1508789 289.215332,243.6621094 285.6801758,243.6621094 
		278.6088867,236.7792969 276.3774414,239.0112305 279.7270508,241.4306641 278.6088867,244.965332 283.2602539,248.5004883 
		279.7270508,258.918457 282.1450195,258.918457 279.5415039,262.6391602 277.4936523,263.5698242 276.3774414,267.1049805 
		274.144043,273.4301758 271.7260742,279.9418945 275.0766602,279.9418945 277.4936523,286.8251953 278.4233398,289.0581055 
		279.7270508,291.6625977 275.262207,292.7792969 273.0288086,292.7792969 274.144043,296.3134766 271.7260742,299.8486328 
		268.3774414,299.8486328 265.9594727,303.1972656 261.3081055,302.081543 258.8891602,303.1972656 257.7729492,299.8486328 
		257.7729492,295.012207 260.1918945,295.012207 255.5405273,288.128418 253.121582,288.128418 248.4707031,285.7094727 
		248.4707031,291.6625977 246.0522461,292.7792969 242.5170898,290.3603516 241.4013672,285.7094727 236.5639648,288.128418 
		230.7958984,292.7792969 226.1450195,293.8950195 225.0292969,289.2441406 221.4936523,292.7792969 216.8427734,292.7792969 
		216.8427734,290.3603516 215.5405273,285.7094727 212.190918,287.0112305 212.190918,278.8261719 207.5405273,276.4072266 "/>
	<polyline id="hessen22" class="ulbda" style="fill-rule:evenodd;clip-rule:evenodd;fill:#EBEBEB;stroke:#000000;" points="172.5639648,366.2661133 
		168.0981445,364.034668 164.5639648,364.034668 164.5639648,367.3833008 163.2612305,368.6860352 159.7270508,368.6860352 
		156.3769531,369.8032227 157.4941406,371.4760742 158.6098633,373.3364258 158.6098633,382.6391602 161.0288086,381.5239258 
		162.1450195,384.871582 169.215332,380.2211914 172.5639648,379.1049805 173.8662109,376.871582 172.5639648,375.5688477 
		170.3310547,376.871582 170.3310547,373.3364258 172.5639648,366.2661133 168.0981445,364.034668 172.5639648,366.2661133 
		168.0981445,364.034668 "/>
	<polyline id="hessen23" class="ulbda" style="fill-rule:evenodd;clip-rule:evenodd;fill:#EBEBEB;stroke:#000000;" points="145.7729492,408.3129883 
		140.0053711,410.5463867 138.8896484,411.8481445 138.8896484,421.1508789 134.0522461,425.8032227 132.9355469,429.3364258 
		129.4013672,432.871582 128.4702148,435.8481445 134.2387695,435.4770508 136.8427734,437.1508789 137.5864258,441.0571289 
		144.6567383,446.824707 148.1918945,441.0571289 148.1918945,438.6391602 149.3076172,433.987793 156.3769531,429.3364258 
		156.3769531,423.3833008 159.7270508,421.1508789 157.4941406,414.081543 159.7270508,407.1977539 157.4941406,405.7094727 
		155.0756836,407.012207 145.7729492,408.3129883 "/>
	<polyline id="hessen24" class="ulbda" style="fill-rule:evenodd;clip-rule:evenodd;fill:#EBEBEB;stroke:#000000;" points="120.0991211,302.081543 
		124.7495117,297.4306641 129.4013672,297.4306641 134.0522461,292.7792969 130.7026367,291.6625977 133.4936523,288.6860352 
		136.4707031,285.7094727 141.1225586,285.7094727 141.1225586,283.4770508 144.6567383,281.0581055 150.4248047,281.0581055 
		152.8427734,283.4770508 157.4941406,281.0581055 163.2612305,285.7094727 164.5639648,283.4770508 166.7963867,283.4770508 
		169.215332,288.128418 166.7963867,289.2441406 169.215332,293.8950195 174.9819336,293.8950195 178.5175781,290.3603516 
		183.168457,293.8950195 186.7026367,291.6625977 191.168457,293.8950195 193.4003906,292.7792969 194.7036133,288.128418 
		196.9365234,287.0112305 199.3544922,278.8261719 204.0058594,278.8261719 207.5405273,276.4072266 212.190918,278.8261719 
		212.190918,287.0112305 215.5405273,285.7094727 216.8427734,290.3603516 216.8427734,292.7792969 221.4936523,292.7792969 
		225.0292969,289.2441406 226.1450195,293.8950195 230.7958984,292.7792969 236.5639648,288.128418 241.4013672,285.7094727 
		242.5170898,290.3603516 246.0522461,292.7792969 248.4707031,291.6625977 244.9355469,298.5463867 243.8198242,299.8486328 
		243.8198242,303.1972656 242.7026367,304.5004883 246.0522461,307.8486328 242.7026367,311.3837891 244.9355469,313.8027344 
		244.9355469,316.0356445 240.2841797,316.0356445 235.6333008,318.4536133 235.6333008,320.6860352 236.7495117,321.987793 
		233.2143555,328.871582 230.9819336,327.7563477 227.4472656,331.2895508 227.4472656,334.8266602 222.7963867,338.3598633 
		219.2607422,337.0581055 212.3769531,339.4770508 209.9589844,335.9418945 208.8427734,335.9418945 205.3076172,341.7094727 
		204.1918945,338.3598633 201.7729492,339.4770508 201.7729492,337.0581055 199.5405273,335.9418945 197.1225586,338.3598633 
		193.5864258,338.3598633 193.5864258,332.4067383 189.121582,332.4067383 186.8886719,330.1743164 184.4702148,330.1743164 
		182.0522461,331.2895508 178.7036133,327.7563477 175.1674805,330.1743164 176.284668,333.5229492 176.284668,335.9418945 
		174.0522461,340.5922852 170.5170898,339.4770508 169.4013672,341.7094727 172.7495117,347.6625977 170.3310547,351.1977539 
		166.7963867,348.7797852 166.7963867,354.5463867 162.1450195,353.4301758 155.0756836,359.1977539 155.0756836,355.8481445 
		151.7260742,353.4301758 152.8427734,344.128418 148.1918945,337.0581055 149.3076172,335.9418945 144.6567383,331.2895508 
		144.6567383,327.7563477 142.6098633,327.7563477 142.4238281,329.2446289 140.0053711,327.7563477 134.0522461,326.6391602 
		137.5864258,324.2211914 138.8896484,321.987793 141.1225586,319.5698242 142.237793,317.3364258 138.8896484,313.8027344 
		135.3544922,311.3837891 136.4707031,307.8486328 132.9355469,306.7329102 125.8662109,307.8486328 120.0991211,302.081543 "/>
	</g>
	<g id="g_hlbrm">
	<polyline id="hessen2" class="hlbrm" style="fill-rule:evenodd;clip-rule:evenodd;fill:#EBEBEB;stroke:#000000;" points="168.0981445,364.034668 
		170.1450195,356.9643555 172.7495117,347.6625977 169.4013672,341.7094727 170.5170898,339.4770508 174.0522461,340.5922852 
		176.284668,335.9418945 176.284668,333.5229492 175.1674805,330.1743164 178.7036133,327.7563477 182.0522461,331.2895508 
		184.4702148,330.1743164 186.8886719,330.1743164 189.121582,332.4067383 193.5864258,332.4067383 193.5864258,338.3598633 
		197.1225586,338.3598633 199.5405273,335.9418945 201.7729492,337.0581055 201.7729492,339.4770508 204.1918945,338.3598633 
		205.3076172,341.7094727 208.8427734,335.9418945 209.9589844,335.9418945 212.3769531,339.4770508 219.2607422,337.0581055 
		222.7963867,338.3598633 227.4472656,334.8266602 227.4472656,331.2895508 230.9819336,327.7563477 233.2143555,328.871582 
		236.7495117,321.987793 235.6333008,320.6860352 235.6333008,318.4536133 240.2841797,316.0356445 244.9355469,316.0356445 
		244.9355469,313.8027344 242.7026367,311.3837891 246.0522461,307.8486328 242.7026367,304.5004883 243.8198242,303.1972656 
		243.8198242,299.8486328 244.9355469,298.5463867 248.4707031,291.6625977 248.4707031,285.7094727 253.121582,288.128418 
		255.5405273,288.128418 260.1918945,295.012207 257.7729492,295.012207 257.7729492,299.8486328 258.8891602,303.1972656 
		261.3081055,302.081543 265.9594727,303.1972656 268.3774414,299.8486328 271.7260742,299.8486328 274.144043,296.3134766 
		273.0288086,292.7792969 275.262207,292.7792969 279.9125977,291.6625977 281.2143555,296.3134766 285.8657227,298.5463867 
		292.7485352,304.5004883 300.9360352,300.965332 306.8901367,305.6157227 312.6577148,304.5004883 321.9594727,310.2675781 
		324.3774414,319.5698242 321.9594727,321.987793 316.1928711,327.7563477 308.0063477,333.5229492 309.121582,339.4770508 
		305.5864258,339.4770508 299.4477539,341.5239258 297.3999023,340.5922852 291.6333008,340.5922852 284.5649414,338.3598633 
		283.4467773,341.7094727 286.9819336,347.6625977 284.5649414,351.1977539 284.5649414,353.4301758 289.215332,358.081543 
		287.5395508,361.6157227 286.9819336,362.7329102 286.9819336,368.6860352 284.5649414,370.918457 277.6791992,373.3364258 
		271.7260742,373.3364258 268.9350586,370.3598633 267.0756836,368.6860352 262.4243164,365.1508789 256.6557617,361.6157227 
		252.0053711,364.034668 243.8198242,362.7329102 239.168457,361.6157227 235.6333008,362.7329102 231.3549805,369.0571289 
		227.4472656,372.034668 226.3310547,369.8032227 219.2607422,365.1508789 214.6098633,368.6860352 207.5405273,369.8032227 
		201.7729492,377.987793 192.284668,376.871582 191.168457,374.4536133 188.0058594,376.871582 186.8886719,380.2211914 
		180.9355469,376.871582 178.7036133,373.3364258 180.7495117,366.4536133 178.5175781,367.3833008 172.5639648,366.2661133 
		168.0981445,364.034668 "/>
	<polyline id="hessen4" class="hlbrm" style="fill-rule:evenodd;clip-rule:evenodd;fill:#EBEBEB;stroke:#000000;" points="60.5639648,390.6391602 
		52.5639648,393.0581055 40.8432617,396.5922852 29.1225586,402.3598633 17.4013672,404.7797852 15.168457,402.3598633 
		12.7504883,395.4770508 9.2143555,393.0581055 1.215332,383.7563477 4.5639648,377.8012695 8.0991211,376.6860352 
		8.0991211,373.1508789 11.6333008,366.2661133 16.284668,368.4995117 18.7026367,368.4995117 22.0527344,373.1508789 
		24.4707031,366.2661133 24.4707031,362.7329102 19.8198242,360.3149414 17.4013672,352.1274414 24.4707031,346.3598633 
		33.7729492,340.5922852 36.1918945,340.5922852 39.7260742,344.128418 45.4941406,341.7094727 45.4941406,339.2915039 
		43.0756836,334.6401367 46.6098633,332.4067383 49.0288086,333.5229492 52.5639648,335.9418945 55.9121094,334.6401367 
		58.1450195,328.871582 64.0991211,331.2895508 68.7504883,327.7563477 71.168457,326.4536133 74.7026367,331.4760742 
		75.6342773,333.5229492 81.5874023,331.2895508 86.237793,332.4067383 89.7729492,328.871582 93.3076172,328.871582 
		95.3544922,328.3129883 97.9589844,329.9887695 101.6801758,332.4067383 103.7270508,333.7094727 101.4941406,337.0581055 
		99.0756836,338.1743164 101.4941406,341.7094727 100.3779297,344.128418 95.5405273,345.2446289 93.4936523,347.2895508 
		93.6791992,348.7797852 93.6791992,350.2661133 94.7963867,352.1274414 95.7260742,353.8032227 96.8432617,356.9643555 
		95.5405273,359.1977539 92.5639648,358.081543 88.6567383,361.6157227 86.237793,360.3149414 84.0053711,361.6157227 
		81.5874023,359.1977539 75.8198242,360.3149414 74.7026367,363.8481445 70.0522461,364.965332 67.6333008,367.3833008 
		61.8662109,366.2661133 58.3310547,369.8032227 54.7963867,373.1508789 57.215332,375.5688477 54.7963867,377.8012695 
		57.215332,380.2211914 58.3310547,382.6391602 61.8662109,383.7563477 60.5639648,390.6391602 "/>
	<polyline id="hessen5" class="hlbrm" style="fill-rule:evenodd;clip-rule:evenodd;fill:#EBEBEB;stroke:#000000;" points="58.1450195,328.871582 
		53.3081055,319.5698242 51.0756836,317.1508789 49.9599609,312.4995117 47.5410156,310.4536133 45.121582,308.4067383 
		40.4702148,304.3144531 39.3544922,300.965332 35.8193359,302.081543 31.1674805,299.6625977 33.4003906,297.4306641 
		35.8193359,292.7792969 38.0512695,290.3603516 36.9355469,285.7094727 34.7036133,278.6401367 38.0512695,271.7558594 
		45.121582,264.6860352 48.6567383,267.1049805 55.7260742,268.2207031 58.1450195,263.5698242 59.262207,258.918457 
		62.7963867,254.081543 66.331543,260.0356445 69.8662109,261.1508789 71.168457,258.7324219 72.8427734,257.6157227 
		74.5170898,256.4995117 79.168457,260.0356445 78.0527344,262.2666016 79.168457,264.6860352 79.168457,266.918457 
		84.0053711,269.3378906 88.6567383,273.9887695 92.1918945,275.1040039 96.8432617,277.5229492 95.7260742,279.7558594 
		96.8432617,283.2910156 99.2612305,284.5922852 100.3779297,286.8251953 103.9130859,285.7094727 105.0288086,283.2910156 
		107.4472656,285.7094727 106.1459961,287.9423828 105.0288086,291.4770508 108.5639648,293.8950195 112.0981445,295.012207 
		112.0981445,297.4306641 114.5170898,297.4306641 115.4482422,302.081543 107.4472656,299.8486328 101.4941406,300.965332 
		93.3076172,307.8486328 93.3076172,310.2675781 90.8886719,313.8027344 89.4013672,314.7324219 89.7729492,316.0356445 
		89.7729492,328.871582 86.237793,332.4067383 81.5874023,331.2895508 75.6342773,333.5229492 74.5170898,331.2895508 
		71.168457,326.4536133 68.7504883,327.7563477 64.0991211,331.2895508 58.1450195,328.871582 "/>
	<polyline id="hessen8" class="hlbrm" style="fill-rule:evenodd;clip-rule:evenodd;fill:#EBEBEB;stroke:#000000;" points="60.5639648,390.6391602 
		61.8662109,383.7563477 58.3310547,382.6391602 57.215332,380.2211914 54.7963867,377.987793 54.7963867,377.8012695 
		57.0292969,375.5688477 57.215332,375.5688477 54.7963867,373.3364258 54.9824219,373.1508789 58.3310547,369.8032227 
		61.6801758,366.2661133 61.8662109,366.2661133 67.6333008,367.3833008 70.0522461,364.965332 74.7026367,363.8481445 
		75.8198242,360.5004883 75.8198242,360.3149414 81.5874023,359.1977539 84.0053711,361.6157227 86.237793,360.3149414 
		88.6567383,361.6157227 90.3310547,360.128418 91.2612305,359.1977539 92.9355469,364.034668 93.3076172,372.034668 
		95.5405273,370.918457 95.5405273,373.3364258 97.9589844,373.3364258 97.9589844,379.1049805 95.5405273,377.987793 
		94.4248047,379.1049805 94.4248047,381.5239258 95.5405273,386.1743164 96.8432617,386.1743164 94.4248047,388.4067383 
		92.1918945,387.2895508 90.8886719,389.7094727 90.8886719,391.9418945 89.7729492,393.0581055 90.8886719,396.5922852 
		85.1225586,396.5922852 76.9355469,390.824707 71.168457,388.4067383 60.5639648,390.6391602 "/>
	<polyline id="hessen17" class="hlbrm" style="fill-rule:evenodd;clip-rule:evenodd;fill:#EBEBEB;stroke:#000000;" points="62.7963867,254.2675781 
		62.9824219,254.2675781 58.3310547,251.8486328 60.5639648,246.081543 55.9121094,239.0112305 54.7963867,233.2441406 
		58.3310547,232.128418 62.9824219,223.9418945 62.9824219,219.1049805 59.4482422,214.4536133 58.3310547,208.6855469 
		64.0991211,202.918457 68.7504883,198.2675781 72.284668,196.9643555 79.3544922,190.0805664 85.1225586,188.7792969 
		89.7729492,193.6157227 95.5405273,192.3134766 95.7260742,192.3134766 102.6098633,193.6157227 102.6098633,194.7314453 
		101.4941406,197.1503906 100.3779297,200.5004883 100.3779297,200.6860352 105.0288086,206.4526367 107.2612305,204.034668 
		108.3779297,206.4526367 110.7963867,204.034668 111.9121094,208.6855469 109.6791992,212.2207031 110.7963867,223.9418945 
		117.8662109,220.4067383 123.6333008,221.5229492 124.7495117,217.987793 127.168457,219.2910156 125.8662109,221.5229492 
		125.8662109,223.9418945 127.168457,227.4770508 130.7026367,227.4770508 129.4013672,230.8251953 132.9355469,232.128418 
		125.8662109,237.8955078 123.6333008,237.8955078 122.5175781,244.965332 122.5175781,248.3134766 127.168457,246.081543 
		132.9355469,250.7329102 132.9355469,252.9643555 137.5864258,256.4995117 136.4707031,263.5698242 132.9355469,264.6860352 
		131.8198242,267.1049805 142.237793,270.4536133 143.5405273,273.9887695 141.1225586,273.9887695 138.7036133,277.5229492 
		132.9355469,276.4072266 130.7026367,278.6401367 128.2841797,278.6401367 128.2841797,281.0581055 125.8662109,281.0581055 
		125.8662109,283.4770508 123.6333008,285.7094727 126.0522461,295.012207 129.4013672,297.4306641 124.7495117,297.4306641 
		120.0991211,302.081543 115.4482422,302.081543 114.5170898,297.4306641 112.0981445,297.4306641 112.0981445,295.012207 
		108.5639648,293.7089844 105.0288086,291.4770508 106.1459961,288.128418 107.4472656,285.7094727 105.0288086,283.2910156 
		103.7270508,285.7094727 100.3779297,286.8251953 99.2612305,284.5922852 96.8432617,283.2910156 95.7260742,279.7558594 
		96.8432617,277.5229492 92.1918945,275.1040039 88.6567383,273.9887695 84.0053711,269.3378906 79.168457,266.918457 
		79.168457,264.6860352 78.0527344,262.2666016 79.168457,260.0356445 74.5170898,256.4995117 71.168457,258.7324219 
		69.8662109,261.1508789 66.331543,260.0356445 62.7963867,254.2675781 "/>
	<polyline id="hessen20" class="hlbrm" style="fill-rule:evenodd;clip-rule:evenodd;fill:#EBEBEB;stroke:#000000;" points="89.7729492,393.0581055 
		90.8886719,396.5922852 93.6791992,396.2211914 96.8432617,396.5922852 97.9589844,396.5922852 103.7270508,397.7094727 
		106.1459961,395.4770508 110.7963867,391.9418945 114.3310547,386.1743164 116.5639648,386.1743164 120.0991211,382.6391602 
		122.5175781,380.2211914 116.5639648,377.987793 116.9355469,376.3149414 114.3310547,376.871582 114.3310547,375.5688477 
		113.215332,374.4536133 113.215332,373.3364258 114.3310547,370.918457 118.9819336,369.8032227 123.6333008,367.3833008 
		125.8662109,368.6860352 134.0522461,362.7329102 132.9355469,361.6157227 135.3544922,359.1977539 134.0522461,358.081543 
		131.8198242,356.9643555 129.4013672,355.8481445 127.168457,354.5463867 122.5175781,356.9643555 121.2143555,355.8481445 
		117.8662109,358.081543 116.5639648,356.9643555 113.215332,354.5463867 110.7963867,358.081543 107.2612305,355.8481445 
		104.8427734,351.012207 93.4936523,347.2895508 93.6791992,350.2661133 95.7260742,353.8032227 96.8432617,356.9643555 
		95.5405273,359.1977539 92.5639648,358.081543 91.2612305,359.1977539 91.8198242,360.871582 92.3779297,362.5473633 
		92.9355469,364.034668 93.3076172,372.034668 95.5405273,370.918457 95.5405273,373.3364258 97.9589844,373.3364258 
		97.9589844,379.1049805 95.5405273,377.987793 94.4248047,379.1049805 94.4248047,381.5239258 95.5405273,386.1743164 
		96.8432617,386.1743164 94.4248047,388.4067383 92.1918945,387.2895508 90.8886719,389.7094727 90.8886719,391.9418945 
		89.7729492,393.0581055 "/>
	<polyline id="hessen25" class="hlbrm" style="fill-rule:evenodd;clip-rule:evenodd;fill:#EBEBEB;stroke:#000000;" points="93.3076172,328.871582 
		89.7729492,328.871582 89.7729492,316.0356445 89.4013672,314.7324219 90.8886719,313.8027344 93.121582,310.2675781 
		93.121582,307.8486328 101.3081055,300.965332 107.4472656,299.8486328 115.4482422,302.081543 120.0991211,302.081543 
		125.8662109,307.8486328 132.9355469,306.7329102 136.4707031,307.8486328 135.3544922,311.3837891 138.8896484,313.8027344 
		142.237793,317.3364258 141.1225586,319.5698242 138.8896484,321.987793 137.5864258,324.2211914 134.0522461,326.6391602 
		140.0053711,327.7563477 142.4238281,329.2446289 142.6098633,327.7563477 144.6567383,327.7563477 144.6567383,331.2895508 
		149.3076172,335.9418945 148.1918945,337.0581055 152.8427734,344.128418 151.7260742,345.2446289 146.8886719,344.128418 
		144.6567383,346.3598633 143.5405273,346.3598633 142.237793,349.8950195 138.8896484,349.8950195 137.5864258,352.1274414 
		134.4248047,358.2680664 134.0522461,358.081543 131.6342773,356.9643555 127.168457,354.5463867 122.331543,356.9643555 
		121.2143555,355.6625977 117.6801758,358.081543 116.5639648,356.9643555 113.0292969,354.5463867 110.7963867,358.081543 
		107.2612305,355.8481445 104.8427734,351.012207 93.4936523,347.2895508 95.5405273,345.2446289 100.3779297,344.128418 
		101.4941406,341.7094727 99.0756836,338.1743164 99.2612305,338.1743164 101.4941406,337.0581055 103.7270508,333.7094727 
		97.9589844,329.9887695 95.3544922,328.3129883 93.121582,328.871582 93.3076172,328.871582 "/>
        </g>
	<g id="g_ubkl">
	  <polyline id="hessen6" class="ubkl" style="fill-rule:evenodd;clip-rule:evenodd;fill:#EBEBEB;stroke:#000000;" points="225.0292969,54.6391602 
		227.2612305,61.7089844 228.3769531,69.8955078 226.1450195,69.8955078 226.1450195,72.128418 223.7260742,72.128418 
		221.4936523,68.5922852 216.8427734,71.0112305 220.3779297,73.4301758 219.074707,76.7792969 215.5405273,78.0805664 
		216.8427734,81.4301758 217.9589844,89.6157227 219.074707,89.6157227 219.074707,92.034668 214.4238281,93.1508789 
		215.5405273,97.8027344 221.4936523,100.2207031 220.3779297,104.8720703 228.3769531,110.6391602 230.7958984,116.5932617 
		231.9130859,122.3598633 235.4472656,127.0112305 230.7958984,135.1977539 227.2612305,136.3134766 227.2612305,138.7324219 
		221.4936523,145.8017578 219.074707,145.8017578 215.5405273,146.918457 215.5405273,151.5698242 212.190918,156.2207031 
		202.7026367,163.2910156 204.0058594,167.9418945 206.2387695,166.6391602 206.2387695,171.4760742 195.8193359,173.7089844 
		193.4003906,170.5463867 191.5405273,168.3134766 188.9355469,166.6391602 185.4013672,169.0571289 174.9819336,166.6391602 
		173.8662109,169.0571289 165.6791992,169.0571289 161.0288086,164.4067383 156.3769531,165.5229492 156.3769531,163.2910156 
		152.8427734,163.2910156 150.4248047,160.8720703 145.7729492,160.8720703 143.5405273,165.5229492 141.1225586,164.4067383 
		138.8896484,169.0571289 131.8198242,170.1743164 127.168457,167.9418945 122.5175781,169.0571289 115.4482422,165.5229492 
		123.6333008,152.6855469 123.6333008,148.034668 118.9819336,146.918457 120.0991211,144.5004883 122.5175781,142.2675781 
		120.0991211,137.6157227 125.8662109,132.7792969 131.8198242,136.3134766 135.3544922,134.0805664 142.237793,135.1977539 
		153.9589844,131.6621094 153.9589844,129.4301758 151.7260742,125.8955078 155.0756836,121.2441406 159.7270508,118.8251953 
		160.8427734,111.3837891 161.0288086,107.1049805 155.0756836,101.3369141 155.0756836,94.2666016 152.8427734,92.034668 
		142.237793,94.2666016 140.0053711,96.6855469 135.3544922,97.8027344 129.4013672,96.6855469 128.2841797,89.6157227 
		132.9355469,87.3833008 135.3544922,83.8486328 137.5864258,79.1977539 140.0053711,76.7792969 144.6567383,75.6625977 
		151.7260742,67.4770508 155.0756836,67.4770508 157.4941406,66.3598633 161.0288086,68.5922852 166.7963867,65.2441406 
		172.5639648,65.2441406 174.9819336,68.5922852 179.6333008,65.2441406 184.2841797,64.6860352 188.9355469,63.9418945 
		191.168457,58.1743164 190.0522461,54.6391602 186.7026367,52.4067383 184.2841797,44.2211914 192.284668,40.6855469 
		201.5874023,36.034668 206.2387695,38.2675781 212.190918,40.6855469 210.8896484,45.3369141 214.4238281,52.4067383 
		221.121582,53.5239258 225.0292969,54.6391602 "/>
	<polyline id="hessen11" class="ubkl" style="fill-rule:evenodd;clip-rule:evenodd;fill:#EBEBEB;stroke:#000000;" points="225.0292969,54.6391602 
		227.2612305,61.7089844 228.3769531,69.8955078 226.1450195,69.8955078 226.1450195,72.128418 223.7260742,72.128418 
		221.4936523,68.5922852 216.8427734,71.0112305 220.3779297,73.4301758 219.074707,76.7792969 215.5405273,78.0805664 
		216.8427734,81.4301758 217.9589844,89.6157227 219.074707,89.6157227 219.074707,92.034668 214.4238281,93.1508789 
		215.5405273,97.8027344 221.4936523,100.2207031 220.3779297,104.8720703 228.3769531,110.6391602 230.7958984,116.5932617 
		236.5639648,114.1743164 236.5639648,111.9418945 237.8652344,110.6391602 243.6342773,109.5239258 243.6342773,107.1049805 
		244.7495117,107.1049805 246.0522461,96.6855469 256.4702148,96.6855469 256.4702148,99.1040039 257.5874023,100.2207031 
		262.237793,101.3369141 265.7739258,103.7548828 270.4243164,102.4536133 277.4936523,104.8720703 284.5649414,103.7548828 
		286.7954102,105.987793 291.4477539,107.1049805 291.4477539,111.9418945 299.6333008,116.5932617 302.0512695,114.1743164 
		303.1694336,108.4067383 308.9360352,104.8720703 313.7729492,98.5463867 317.1225586,97.8027344 319.5405273,96.6855469 
		321.5883789,94.0805664 313.5874023,95.5698242 311.3540039,93.1508789 305.4008789,89.6157227 307.8198242,80.3134766 
		312.4711914,82.7324219 318.237793,84.9643555 312.4711914,82.7324219 307.8198242,80.3134766 305.4008789,82.7324219 
		302.0512695,80.3134766 299.6333008,80.3134766 297.3999023,78.0805664 291.4477539,75.6625977 291.4477539,71.0112305 
		290.3305664,68.5922852 290.3305664,63.9418945 297.3999023,61.7089844 302.0512695,58.1743164 302.0512695,53.5239258 
		303.1694336,51.1049805 302.0512695,49.987793 300.7495117,44.2211914 293.8666992,39.5698242 293.8666992,32.5004883 
		299.6333008,27.8486328 297.3999023,24.3134766 302.0512695,24.3134766 302.0512695,23.1977539 298.5180664,19.6625977 
		299.6333008,17.4301758 302.0512695,17.4301758 305.4008789,20.7792969 308.9360352,18.5463867 303.1694336,15.0112305 
		299.6333008,11.4770508 298.7036133,6.4526367 297.3999023,5.7089844 292.5629883,7.9418945 287.9116211,5.7089844 
		286.7954102,3.2900391 282.1450195,6.8261719 281.0288086,4.5932617 278.6088867,1.0581055 268.190918,2.1743164 
		268.190918,6.8261719 254.0522461,11.4770508 256.4702148,16.128418 250.7036133,25.4306641 247.1674805,32.5004883 
		242.5170898,34.9189453 241.4013672,37.1508789 233.2143555,40.6855469 234.3310547,44.2211914 234.3310547,48.8720703 
		229.6801758,47.7548828 227.2612305,47.7548828 225.0292969,54.6391602 "/>
	<polyline id="hessen12" class="ubkl" style="fill-rule:evenodd;clip-rule:evenodd;fill:#EBEBEB;stroke:#000000;" points="202.7026367,163.2910156 
		212.190918,156.2207031 215.5405273,151.5698242 215.5405273,146.918457 219.074707,145.8017578 221.4936523,145.8017578 
		227.2612305,138.7324219 227.2612305,136.3134766 230.7958984,135.1977539 235.4472656,127.0112305 231.9130859,122.3598633 
		230.7958984,116.5932617 236.5639648,114.1743164 236.5639648,111.9418945 237.8652344,110.6391602 243.6342773,109.5239258 
		243.6342773,107.1049805 244.7495117,107.1049805 245.3081055,101.8955078 246.0522461,96.6855469 256.4702148,96.6855469 
		256.4702148,99.1040039 257.5874023,100.2207031 262.237793,101.3369141 265.7739258,103.7548828 270.4243164,102.4536133 
		277.4936523,104.8720703 284.5649414,103.7548828 286.7954102,105.987793 291.4477539,107.1049805 291.4477539,111.9418945 
		299.6333008,116.5932617 302.0512695,114.1743164 306.7016602,113.0571289 311.3540039,113.0571289 311.3540039,116.5932617 
		319.5405273,122.3598633 325.3071289,121.2441406 326.4243164,136.3134766 321.7739258,140.9643555 313.5874023,137.6157227 
		308.9360352,140.9643555 305.4008789,142.2675781 302.0512695,144.5004883 302.0512695,149.1508789 297.3999023,150.4526367 
		292.5629883,150.4526367 293.8666992,158.6391602 292.5629883,158.6391602 289.215332,164.4067383 292.5629883,167.9418945 
		291.4477539,169.0571289 286.7954102,169.0571289 283.2602539,173.7089844 282.1450195,177.2441406 278.6088867,180.7783203 
		282.1450195,181.8955078 282.1450195,190.0805664 286.7954102,195.8486328 283.2602539,199.3833008 278.6088867,200.5004883 
		270.4243164,206.4526367 265.7739258,207.5698242 265.7739258,211.1040039 261.121582,209.987793 260.0063477,205.1508789 
		258.8891602,204.034668 256.4702148,205.1508789 252.9360352,202.918457 244.7495117,202.918457 244.7495117,205.1508789 
		242.5170898,205.1508789 241.4013672,201.8017578 236.5639648,199.3833008 235.4472656,200.5004883 231.9130859,198.2675781 
		225.0292969,197.1503906 222.6108398,192.3134766 217.9589844,190.0805664 216.8427734,183.0112305 220.3779297,180.7783203 
		216.8427734,176.1269531 209.7729492,178.3598633 206.2387695,171.4760742 206.2387695,166.6391602 205.8666992,166.8251953 
		204.0058594,167.9418945 206.2387695,166.6391602 204.0058594,167.9418945 202.7026367,163.2910156 "/>
	<polyline id="hessen13" class="ubkl" style="fill-rule:evenodd;clip-rule:evenodd;fill:#EBEBEB;stroke:#000000;" points="314.8891602,69.8955078 
		318.237793,75.6625977 319.5405273,78.0805664 324.190918,79.1977539 325.3071289,81.4301758 318.237793,84.9643555 
		312.4711914,82.7324219 307.8198242,80.3134766 305.4008789,89.6157227 311.3540039,93.1508789 313.5874023,95.5698242 
		321.5883789,94.0805664 319.5405273,96.6855469 318.7954102,97.0571289 317.1225586,97.8027344 316.378418,97.9887695 
		315.074707,98.3603516 313.7729492,98.5463867 308.9360352,104.8720703 303.1694336,108.4067383 302.0512695,114.1743164 
		306.7016602,113.0571289 311.3540039,113.0571289 311.3540039,116.5932617 319.5405273,122.3598633 325.3071289,121.2441406 
		326.4243164,136.3134766 332.3774414,135.1977539 334.6088867,135.1977539 333.4936523,138.7324219 340.5649414,140.9643555 
		341.6801758,144.5004883 345.215332,144.5004883 348.7504883,145.8017578 350.9829102,143.3833008 353.4018555,144.6860352 
		356.9360352,146.7324219 362.7045898,150.4526367 360.284668,156.2207031 366.2368164,158.6391602 367.3549805,152.6855469 
		376.6577148,151.5698242 385.9594727,152.6855469 394.144043,152.6855469 395.262207,146.918457 390.6118164,142.2675781 
		384.8422852,139.8486328 385.9594727,131.6621094 388.3774414,128.1274414 386.331543,126.081543 383.7260742,124.7783203 
		382.4243164,121.2441406 384.8422852,119.9418945 387.262207,118.8251953 390.6118164,121.2441406 391.9125977,125.8955078 
		395.262207,127.0112305 395.262207,119.9418945 396.5639648,116.5932617 401.215332,113.0571289 398.7954102,109.5239258 
		393.2143555,108.4067383 387.262207,107.1049805 382.4243164,103.7548828 379.0756836,103.7548828 373.1225586,100.2207031 
		372.0063477,97.8027344 368.4711914,95.5698242 370.8891602,93.1508789 368.4711914,88.5004883 364.0063477,87.9423828 
		359.1694336,87.3833008 356.7485352,86.2675781 350.9829102,82.7324219 352.8422852,80.871582 354.5180664,79.1977539 
		349.8666992,69.8955078 348.7504883,62.8251953 345.215332,55.7558594 342.7954102,55.7558594 341.6801758,59.2900391 
		338.1450195,58.1743164 338.1450195,65.2441406 337.0288086,66.3598633 333.4936523,58.1743164 332.3774414,58.1743164 
		327.7260742,62.8251953 323.0756836,63.9418945 314.8891602,69.8955078 "/>
	<polyline id="hessen14" class="ubkl" style="fill-rule:evenodd;clip-rule:evenodd;fill:#EBEBEB;stroke:#000000;" points="292.5629883,212.2207031 
		285.6801758,217.987793 282.1450195,217.987793 283.2602539,215.7548828 276.3774414,211.1040039 276.3774414,209.987793 
		270.4243164,206.4526367 278.6088867,200.5004883 283.2602539,199.3833008 286.7954102,195.8486328 282.1450195,190.0805664 
		282.1450195,181.8955078 278.6088867,180.7783203 282.1450195,177.2441406 283.2602539,173.7089844 286.7954102,169.0571289 
		291.4477539,169.0571289 292.5629883,167.9418945 289.215332,164.4067383 292.5629883,158.6391602 293.8666992,158.6391602 
		292.5629883,150.4526367 297.3999023,150.4526367 302.0512695,149.1508789 302.0512695,144.5004883 305.4008789,142.2675781 
		308.9360352,140.9643555 313.5874023,137.6157227 321.7739258,140.9643555 326.4243164,136.3134766 332.3774414,135.1977539 
		334.6088867,135.1977539 333.4936523,138.7324219 340.5649414,140.9643555 341.6801758,144.5004883 345.215332,144.5004883 
		348.7504883,145.8017578 350.9829102,143.3833008 353.7739258,144.8720703 359.3549805,148.4072266 362.7045898,150.4526367 
		360.284668,156.2207031 366.2368164,158.6391602 368.4711914,163.2910156 370.8891602,166.6391602 370.8891602,169.0571289 
		359.1694336,169.0571289 355.6333008,170.1743164 356.7485352,173.7089844 360.284668,172.5932617 361.5864258,177.2441406 
		362.7045898,177.2441406 364.9360352,176.1269531 372.0063477,180.7783203 370.3305664,182.4536133 366.2368164,187.6621094 
		367.3549805,190.0805664 369.5874023,192.3134766 367.3549805,194.7314453 360.284668,195.8486328 355.6333008,199.3833008 
		356.7485352,200.5004883 354.5180664,204.034668 355.6333008,207.5698242 350.9829102,212.2207031 346.3305664,205.1508789 
		340.5649414,205.1508789 339.2602539,206.4526367 332.3774414,204.034668 331.0766602,202.918457 328.8422852,202.918457 
		327.7260742,200.5004883 326.4243164,205.1508789 319.5405273,206.4526367 319.5405273,208.6855469 318.237793,209.987793 
		319.5405273,214.6391602 316.0043945,217.987793 313.5874023,216.8720703 312.4711914,221.5229492 310.237793,222.8261719 
		306.7016602,220.4067383 304.284668,221.5229492 303.1694336,219.2910156 300.7495117,219.2910156 299.6333008,214.6391602 
		292.5629883,212.2207031 "/>
	<polyline id="hessen15" class="ubkl" style="fill-rule:evenodd;clip-rule:evenodd;fill:#EBEBEB;stroke:#000000;" points="291.4477539,75.2900391 
		285.4946289,76.7792969 280.8422852,76.7792969 279.7270508,73.4301758 277.3071289,75.6625977 272.6567383,74.5463867 
		272.6567383,73.4301758 269.1206055,74.5463867 266.8891602,72.128418 262.237793,74.5463867 261.121582,72.128418 
		259.8198242,73.4301758 258.7026367,76.7792969 259.8198242,80.3134766 256.2836914,83.8486328 259.8198242,87.3833008 
		258.7026367,89.6157227 261.121582,90.9189453 262.237793,89.6157227 266.8891602,92.034668 269.1206055,94.4526367 
		276.1918945,94.4526367 279.7270508,88.5004883 280.8422852,92.034668 284.378418,92.034668 284.378418,88.5004883 
		290.1450195,86.2675781 290.1450195,84.9643555 291.4477539,81.6157227 289.0297852,82.7324219 286.237793,80.4995117 
		286.6098633,79.1977539 290.3305664,77.8950195 291.4477539,75.2900391 "/>
	<polyline id="hessen16" class="ubkl" style="fill-rule:evenodd;clip-rule:evenodd;fill:#EBEBEB;stroke:#000000;" points="95.5405273,192.3134766 
		95.7260742,192.3134766 101.4941406,184.1274414 107.2612305,178.3598633 111.9121094,174.8251953 111.9121094,169.0571289 
		115.4482422,165.5229492 122.5175781,169.0571289 127.168457,167.9418945 131.8198242,170.1743164 138.8896484,169.0571289 
		141.1225586,164.4067383 143.5405273,165.5229492 145.7729492,160.8720703 150.4248047,160.8720703 152.8427734,163.2910156 
		156.3769531,163.2910156 156.3769531,165.5229492 161.0288086,164.4067383 165.6791992,169.0571289 173.8662109,169.0571289 
		174.9819336,166.6391602 185.4013672,169.0571289 188.9355469,166.6391602 191.5405273,168.3134766 193.0288086,170.1743164 
		195.8193359,173.7089844 200.8427734,172.5932617 206.2387695,171.4760742 209.7729492,178.3598633 216.8427734,176.1269531 
		220.3779297,180.7783203 216.8427734,183.0112305 217.9589844,190.0805664 222.6108398,192.3134766 225.0292969,197.1503906 
		219.074707,197.1503906 216.8427734,198.2675781 215.5405273,202.918457 212.190918,202.918457 208.6567383,206.4526367 
		204.0058594,206.4526367 202.7026367,209.987793 195.8193359,214.6391602 188.9355469,220.4067383 185.4013672,222.8261719 
		185.4013672,226.1743164 186.7026367,229.7089844 183.168457,232.128418 178.5175781,229.7089844 177.2143555,228.5922852 
		170.3310547,228.5922852 167.9121094,232.128418 163.2612305,229.7089844 161.0288086,230.8251953 158.6098633,233.2441406 
		153.9589844,233.2441406 152.8427734,235.6625977 146.8886719,230.8251953 144.6567383,227.4770508 141.1225586,229.7089844 
		137.5864258,234.3598633 134.0522461,235.6625977 132.9355469,232.128418 129.4013672,230.8251953 130.7026367,227.4770508 
		127.168457,227.4770508 125.8662109,223.9418945 125.8662109,221.5229492 127.168457,219.2910156 124.7495117,217.987793 
		123.6333008,221.5229492 117.8662109,220.4067383 115.4482422,221.5229492 113.215332,222.8261719 110.7963867,223.9418945 
		109.6791992,212.2207031 111.9121094,208.6855469 110.7963867,204.034668 108.3779297,206.4526367 107.2612305,204.034668 
		105.0288086,206.4526367 100.190918,200.5004883 101.4941406,197.1503906 102.6098633,194.7314453 102.6098633,193.6157227 
		95.5405273,192.3134766 "/>
        </g>
	<g id="g_ubffm">
	<polyline id="hessen21" class="ubffm" style="fill-rule:evenodd;clip-rule:evenodd;fill:#EBEBEB;stroke:#000000;" points="122.5175781,380.2211914 
		116.5639648,377.987793 116.9355469,376.3149414 114.3310547,376.871582 114.3310547,375.5688477 113.215332,374.4536133 
		113.215332,373.3364258 114.3310547,370.918457 118.9819336,369.8032227 123.6333008,367.3833008 125.8662109,368.6860352 
		134.0522461,362.7329102 132.9355469,361.6157227 135.3544922,359.1977539 134.4248047,358.4536133 138.8896484,349.8950195 
		142.237793,349.8950195 143.5405273,346.3598633 144.6567383,346.3598633 145.7729492,345.2446289 146.8886719,344.128418 
		151.7260742,345.2446289 152.8427734,344.128418 152.284668,348.7797852 151.7260742,353.4301758 155.0756836,355.8481445 
		155.0756836,359.1977539 162.1450195,353.4301758 166.7963867,354.5463867 166.7963867,348.7797852 170.3310547,351.1977539 
		172.7495117,347.6625977 168.0981445,364.034668 164.5639648,364.034668 164.5639648,367.3833008 163.2612305,368.6860352 
		159.7270508,368.6860352 156.3769531,369.8032227 158.6098633,373.3364258 156.3769531,376.871582 153.9589844,380.2211914 
		148.0058594,382.4536133 144.6567383,383.7563477 137.5864258,382.6391602 136.4707031,387.2895508 135.3544922,386.1743164 
		132.9355469,391.9418945 130.7026367,389.7094727 122.5175781,391.9418945 121.2143555,389.7094727 123.6333008,387.2895508 
		128.2841797,384.871582 128.2841797,382.6391602 127.168457,381.5239258 120.4707031,382.2680664 122.5175781,380.2211914 "/>
	</g>
	<g id="g_hlbfd">
	<polyline id="hessen26" class="hlbfd" style="fill-rule:evenodd;clip-rule:evenodd;fill:#EBEBEB;stroke:#000000;" points="306.7016602,220.4067383 
		310.237793,222.8261719 312.4711914,221.5229492 313.5874023,216.8720703 316.0043945,217.987793 319.5405273,214.6391602 
		318.237793,209.987793 319.5405273,208.6855469 319.5405273,206.4526367 326.4243164,205.1508789 327.7260742,200.5004883 
		328.8422852,202.918457 331.0766602,202.918457 332.3774414,204.034668 335.9125977,205.1508789 339.2602539,206.4526367 
		340.5649414,205.1508789 346.3305664,205.1508789 350.9829102,212.2207031 352.0981445,213.3364258 353.4018555,215.7548828 
		350.9829102,222.8261719 348.7504883,226.1743164 349.8666992,228.034668 350.9829102,229.7089844 346.3305664,233.2441406 
		346.3305664,244.965332 350.9829102,242.5463867 356.7485352,243.6621094 359.1694336,241.4306641 358.0532227,239.0112305 
		358.0532227,236.7792969 364.9360352,233.2441406 373.1225586,233.2441406 376.6577148,237.8955078 377.7729492,243.6621094 
		373.1225586,244.965332 372.0063477,246.081543 373.1225586,249.6157227 373.1225586,271.7558594 369.5874023,281.0581055 
		364.9360352,287.0112305 359.7270508,290.9189453 355.6333008,293.8950195 348.7504883,297.4306641 345.215332,297.4306641 
		337.0288086,298.5463867 332.3774414,293.8950195 328.0981445,294.8251953 325.3071289,295.012207 325.3071289,302.081543 
		321.7739258,310.2675781 321.7739258,310.081543 312.6577148,304.5004883 306.8901367,305.6157227 300.9360352,300.965332 
		292.7485352,304.5004883 285.8657227,298.5463867 281.2143555,296.3134766 280.0991211,291.8486328 278.4233398,289.0581055 
		276.7495117,284.5922852 275.0766602,279.9418945 271.7260742,279.9418945 273.9584961,274.1743164 276.3774414,267.1049805 
		277.4936523,263.5698242 279.5415039,262.6391602 282.1450195,258.918457 279.7270508,258.918457 283.2602539,248.5004883 
		278.6088867,244.965332 279.7270508,241.4306641 276.3774414,239.0112305 278.6088867,236.7792969 285.6801758,243.6621094 
		289.215332,243.6621094 290.3305664,244.965332 291.4477539,247.1972656 294.9829102,247.1972656 298.5180664,250.7329102 
		302.0512695,246.081543 305.4008789,244.965332 302.425293,239.7558594 302.0512695,239.0112305 304.6567383,235.8486328 
		306.7016602,233.2441406 302.0512695,230.8251953 300.7495117,227.4770508 304.284668,221.5229492 306.7016602,220.4067383 "/>
	</g>
   <g id="g186" transform="scale(0.678, 0.64)">
				<rect
   width="81.182617"
   height="20.99951"
   x="243.90625"
   y="478.00977"
   style="fill:none"
   id="rect188" /> 
				<text
   x="281.90625"
   y="488.26172"
   style="font-size:18px;font-style:normal;font-variant:normal;font-weight:normal;font-stretch:normal;text-align:center;line-height:125%;writing-mode:lr-tb;text-anchor:middle;font-family:Sans"
   id="text2357"><tspan
     x="281.90625"
     y="488.26172"
     id="tspan2367">Wetteraukreis</tspan></text>

			<text
   x="333.90625"
   y="560.26172"
   style="font-size:18px;font-style:normal;font-variant:normal;font-weight:normal;font-stretch:normal;text-align:center;line-height:125%;writing-mode:lr-tb;text-anchor:middle;font-family:Sans"
   id="text2369"><tspan
     x="333.90625"
     y="560.26172"
     id="tspan2373">Kreis</tspan></text>
<text
   x="403.15414"
   y="510.6861"
   style="font-size:18px;font-style:normal;font-variant:normal;font-weight:normal;font-stretch:normal;text-align:center;line-height:125%;writing-mode:lr-tb;text-anchor:middle;font-family:Sans"
   id="text2375"><tspan
     x="403.15414"
     y="510.6861"
     id="tspan2379">Main-</tspan></text>
<text
   x="373.90625"
   y="536.26172"
   style="font-size:18px;font-style:normal;font-variant:normal;font-weight:normal;font-stretch:normal;text-align:center;line-height:125%;writing-mode:lr-tb;text-anchor:middle;font-family:Sans"
   id="text2383"><tspan
     x="373.90625"
     y="536.26172"
     id="tspan2387">Kinzig-</tspan></text>
<text
   x="479.15414"
   y="418.6861"
   style="font-size:18px;font-style:normal;font-variant:normal;font-weight:normal;font-stretch:normal;text-align:center;line-height:125%;writing-mode:lr-tb;text-anchor:middle;font-family:Sans"
   id="text2393"><tspan
     x="479.15414"
     y="418.6861"
     id="tspan2395">Fulda</tspan></text>
<text
   x="479.15414"
   y="286.6861"
   style="font-size:18px;font-style:normal;font-variant:normal;font-weight:normal;font-stretch:normal;text-align:center;line-height:125%;writing-mode:lr-tb;text-anchor:middle;font-family:Sans"
   id="text2397"><tspan
     x="479.15414"
     y="286.6861"
     id="tspan2399">Hersfeld-</tspan><tspan
     x="479.15414"
     y="309.1861"
     id="tspan2401">Rotenburg</tspan></text>
<text
   x="360.2403"
   y="376.6987"
   style="font-size:18px;font-style:normal;font-variant:normal;font-weight:normal;font-stretch:normal;text-align:center;line-height:125%;writing-mode:lr-tb;text-anchor:middle;font-family:Sans"
   id="text2403"><tspan
     x="360.2403"
     y="376.6987"
     id="tspan2405">Vogelsberg-</tspan><tspan
     x="360.2403"
     y="399.1987"
     id="tspan2407">kreis</tspan></text>
<text
   x="258.68991"
   y="411.74072"
   style="font-size:18px;font-style:normal;font-variant:normal;font-weight:normal;font-stretch:normal;text-align:center;line-height:125%;writing-mode:lr-tb;text-anchor:middle;font-family:Sans"
   id="text2409"><tspan
     x="258.68991"
     y="411.74072"
     id="tspan2411">Gießen</tspan></text>
<text
   x="240.68991"
   y="299.74072"
   style="font-size:18px;font-style:normal;font-variant:normal;font-weight:normal;font-stretch:normal;text-align:center;line-height:125%;writing-mode:lr-tb;text-anchor:middle;font-family:Sans"
   id="text2413"><tspan
     x="240.68991"
     y="299.74072"
     id="tspan2415">Marburg-</tspan><tspan
     x="240.68991"
     y="322.24072"
     id="tspan2417">Biedenkopf</tspan></text>
<text
   x="144.68991"
   y="375.74072"
   style="font-size:18px;font-style:normal;font-variant:normal;font-weight:normal;font-stretch:normal;text-align:center;line-height:125%;writing-mode:lr-tb;text-anchor:middle;font-family:Sans"
   id="text2419"><tspan
     x="144.68991"
     y="375.74072"
     id="tspan2421">Lahn-</tspan></text>
<text
   x="152.68991"
   y="397.74072"
   style="font-size:18px;font-style:normal;font-variant:normal;font-weight:normal;font-stretch:normal;text-align:center;line-height:125%;writing-mode:lr-tb;text-anchor:middle;font-family:Sans"
   id="text2423"><tspan
     x="152.68991"
     y="397.74072"
     id="tspan2425">Dill-</tspan></text>
<text
   x="164.68991"
   y="419.74072"
   style="font-size:18px;font-style:normal;font-variant:normal;font-weight:normal;font-stretch:normal;text-align:center;line-height:125%;writing-mode:lr-tb;text-anchor:middle;font-family:Sans"
   id="text2427"><tspan
     x="164.68991"
     y="419.74072"
     id="tspan2429">Kreis</tspan></text>
<text
   x="107.04288"
   y="446.75119"
   style="font-size:18px;font-style:normal;font-variant:normal;font-weight:normal;font-stretch:normal;text-align:center;line-height:100%;writing-mode:lr-tb;text-anchor:middle;font-family:Sans"
   id="text2431"><tspan
     x="107.04288"
     y="446.75119"
     id="tspan2433">Limburg-</tspan><tspan
     x="107.04288"
     y="464.75119"
     id="tspan2435">Weilburg</tspan></text>
<text
   x="286.68991"
   y="195.74072"
   style="font-size:18px;font-style:normal;font-variant:normal;font-weight:normal;font-stretch:normal;text-align:center;line-height:125%;writing-mode:lr-tb;text-anchor:middle;font-family:Sans"
   id="text2437"><tspan
     x="286.68991"
     y="195.74072"
     id="tspan2439">Waldeck-</tspan><tspan
     x="286.68991"
     y="218.24072"
     id="tspan2441">Franken-</tspan><tspan
     x="286.68991"
     y="240.74072"
     id="tspan2443">berg</tspan></text>
<text
   x="396.68991"
   y="91.740723"
   style="font-size:18px;font-style:normal;font-variant:normal;font-weight:normal;font-stretch:normal;text-align:center;line-height:125%;writing-mode:lr-tb;text-anchor:middle;font-family:Sans"
   id="text2445"><tspan
     x="396.68991"
     y="91.740723"
     id="tspan2447">Kassel</tspan></text>
<text
   x="370.68991"
   y="275.74072"
   style="font-size:18px;font-style:normal;font-variant:normal;font-weight:normal;font-stretch:normal;text-align:center;line-height:125%;writing-mode:lr-tb;text-anchor:middle;font-family:Sans"
   id="text2449"><tspan
     x="370.68991"
     y="275.74072"
     id="tspan2455">Kreis</tspan></text>
<text
   x="410.68991"
   y="215.74072"
   style="font-size:18px;font-style:normal;font-variant:normal;font-weight:normal;font-stretch:normal;text-align:center;line-height:125%;writing-mode:lr-tb;text-anchor:middle;font-family:Sans"
   id="text2457"><tspan
     x="410.68991"
     y="215.74072"
     id="tspan2463">Schwalm-</tspan></text>
<text
   x="388.68991"
   y="245.74072"
   style="font-size:18px;font-style:normal;font-variant:normal;font-weight:normal;font-stretch:normal;text-align:center;line-height:125%;writing-mode:lr-tb;text-anchor:middle;font-family:Sans"
   id="text2469"><tspan
     x="388.68991"
     y="245.74072"
     id="tspan2475">Eder-</tspan></text>
<text
   x="510.68991"
   y="161.74072"
   style="font-size:18px;font-style:normal;font-variant:normal;font-weight:normal;font-stretch:normal;text-align:center;line-height:125%;writing-mode:lr-tb;text-anchor:middle;font-family:Sans"
   id="text2485"><tspan
     x="510.68991"
     y="161.74072"
     id="tspan2487">Werra-</tspan></text>
<text
   x="522.68994"
   y="185.74072"
   style="font-size:18px;font-style:normal;font-variant:normal;font-weight:normal;font-stretch:normal;text-align:center;line-height:125%;writing-mode:lr-tb;text-anchor:middle;font-family:Sans"
   id="text2489"><tspan
     x="522.68994"
     y="185.74072"
     id="tspan2491">Meißner-</tspan></text>
<text
   x="526.68994"
   y="209.74072"
   style="font-size:18px;font-style:normal;font-variant:normal;font-weight:normal;font-stretch:normal;text-align:center;line-height:125%;writing-mode:lr-tb;text-anchor:middle;font-family:Sans"
   id="text2493"><tspan
     x="526.68994"
     y="209.74072"
     id="tspan2495">Kreis</tspan></text>
<text
   x="88.689911"
   y="555.74072"
   style="font-size:18px;font-style:normal;font-variant:normal;font-weight:normal;font-stretch:normal;text-align:center;line-height:100%;writing-mode:lr-tb;text-anchor:middle;font-family:Sans"
   id="text2497"><tspan
     x="88.689911"
     y="555.74072"
     id="tspan2499">Rheingau-</tspan></text>
<text
   x="50.689911"
   y="595.74072"
   style="font-size:18px;font-style:normal;font-variant:normal;font-weight:normal;font-stretch:normal;text-align:center;line-height:100%;writing-mode:lr-tb;text-anchor:middle;font-family:Sans"
   id="text2501"><tspan
     x="50.689911"
     y="595.74072"
     id="tspan2503">Taunus-</tspan></text>
<text
   x="40.689911"
   y="617.74072"
   style="font-size:18px;font-style:normal;font-variant:normal;font-weight:normal;font-stretch:normal;text-align:center;line-height:100%;writing-mode:lr-tb;text-anchor:middle;font-family:Sans"
   id="text2505"><tspan
     x="40.689911"
     y="617.74072"
     id="tspan2507">Kr.</tspan></text>
<text
   x="287.90625"
   y="724.26172"
   style="font-size:18px;font-style:normal;font-variant:normal;font-weight:normal;font-stretch:normal;text-align:center;line-height:125%;writing-mode:lr-tb;text-anchor:middle;font-family:Sans"
   id="text2509"><tspan
     x="287.90625"
     y="724.26172"
     id="tspan2511">Oden-</tspan><tspan
     x="287.90625"
     y="746.76172"
     id="tspan2513">wald-</tspan><tspan
     x="287.90625"
     y="769.26172"
     id="tspan2515">kr.</tspan></text>
<text
   x="196.68991"
   y="749.74072"
   style="font-size:18px;font-style:normal;font-variant:normal;font-weight:normal;font-stretch:normal;text-align:center;line-height:100%;writing-mode:lr-tb;text-anchor:middle;font-family:Sans"
   id="text2517"><tspan
     x="196.68991"
     y="749.74072"
     id="tspan2519">Bergstraße</tspan></text>
<text
   x="167.90625"
   y="638.26172"
   style="font-size:18px;font-style:normal;font-variant:normal;font-weight:normal;font-stretch:normal;text-align:center;line-height:125%;writing-mode:lr-tb;text-anchor:middle;font-family:Sans"
   id="text2521"><tspan
     x="167.90625"
     y="638.26172"
     id="tspan2523">Groß-</tspan><tspan
     x="167.90625"
     y="660.76172"
     id="tspan2527">Gerau</tspan></text>
<text
   x="250.68991"
   y="617.74072"
   style="font-size:18px;font-style:normal;font-variant:normal;font-weight:normal;font-stretch:normal;text-align:center;line-height:100%;writing-mode:lr-tb;text-anchor:middle;font-family:Sans"
   id="text2531"><tspan
     x="250.68991"
     y="617.74072"
     id="tspan2533">Offenbach</tspan></text>
<text
   x="268.68991"
   y="657.74072"
   style="font-size:18px;font-style:normal;font-variant:normal;font-weight:normal;font-stretch:normal;text-align:center;line-height:100%;writing-mode:lr-tb;text-anchor:middle;font-family:Sans"
   id="text2535"><tspan
     x="268.68991"
     y="657.74072"
     id="tspan2537">Darm-</tspan><tspan
     x="268.68991"
     y="675.74072"
     id="tspan2539">stadt-</tspan></text>
<text
   x="226.68991"
   y="701.74072"
   style="font-size:18px;font-style:normal;font-variant:normal;font-weight:normal;font-stretch:normal;text-align:center;line-height:100%;writing-mode:lr-tb;text-anchor:middle;font-family:Sans"
   id="text2541"><tspan
     x="226.68991"
     y="701.74072"
     id="tspan2545">Dieburg</tspan></text>
<text
   x="210.68991"
   y="581.74072"
   style="font-size:18px;font-style:normal;font-variant:normal;font-weight:normal;font-stretch:normal;text-align:center;line-height:100%;writing-mode:lr-tb;text-anchor:middle;font-family:Sans"
   id="text2549"><tspan
     x="210.68991"
     y="581.74072"
     id="tspan2551">2</tspan></text>
<text
   x="242.68991"
   y="591.74072"
   style="font-size:18px;font-style:normal;font-variant:normal;font-weight:normal;font-stretch:normal;text-align:center;line-height:100%;writing-mode:lr-tb;text-anchor:middle;font-family:Sans"
   id="text2553"><tspan
     x="242.68991"
     y="591.74072"
     id="tspan2555">4</tspan></text>
<text
   x="116.68991"
   y="591.74072"
   style="font-size:18px;font-style:normal;font-variant:normal;font-weight:normal;font-stretch:normal;text-align:center;line-height:100%;writing-mode:lr-tb;text-anchor:middle;font-family:Sans"
   id="text2557"><tspan
     x="116.68991"
     y="591.74072"
     id="tspan2559">5</tspan></text>
<text
   x="214.68991"
   y="671.74072"
   style="font-size:18px;font-style:normal;font-variant:normal;font-weight:normal;font-stretch:normal;text-align:center;line-height:100%;writing-mode:lr-tb;text-anchor:middle;font-family:Sans"
   id="text2561"><tspan
     x="214.68991"
     y="671.74072"
     id="tspan2563">1</tspan></text>
<text
   x="410.68991"
   y="137.74072"
   style="font-size:18px;font-style:normal;font-variant:normal;font-weight:normal;font-stretch:normal;text-align:center;line-height:100%;writing-mode:lr-tb;text-anchor:middle;font-family:Sans"
   id="text2565"><tspan
     x="410.68991"
     y="137.74072"
     id="tspan2567">3</tspan></text>
<text
   x="363.90625"
   y="704.26172"
   style="font-size:18px;font-style:normal;font-variant:normal;font-weight:normal;font-stretch:normal;text-align:start;line-height:100%;writing-mode:lr-tb;text-anchor:start;font-family:Sans"
   id="text2569"><tspan
     x="363.90625"
     y="704.26172"
     style="font-size:22px;font-style:normal;font-variant:normal;font-weight:normal;font-stretch:normal;text-align:start;line-height:100%;writing-mode:lr-tb;text-anchor:start;font-family:Sans"
     id="tspan2571">Kreisfreie Städte</tspan></text>
<text
   x="363.90625"
   y="730.26172"
   style="font-size:18px;font-style:normal;font-variant:normal;font-weight:normal;font-stretch:normal;text-align:start;line-height:125%;writing-mode:lr-tb;text-anchor:start;font-family:Sans"
   id="text2573"><tspan
     x="363.90625"
     y="730.26172"
     id="tspan2575">1 Darmstadt</tspan><tspan
     x="363.90625"
     y="752.76172"
     id="tspan2577">2 Frankfurt am Main</tspan><tspan
     x="363.90625"
     y="775.26172"
     id="tspan2579">3 Kassel</tspan><tspan
     x="363.90625"
     y="797.76172"
     id="tspan2581">4 Offenbach am Main</tspan><tspan
     x="363.90625"
     y="820.26172"
     id="tspan2583">5 Wiesbaden</tspan></text>
<g style="display:none">
<text
   x="6.8432999"
   y="30.116894"
   style="font-size:28px;font-style:normal;font-variant:normal;font-weight:bold;font-stretch:normal;text-align:start;line-height:125%;writing-mode:lr-tb;text-anchor:start;font-family:Sans"
   id="text2585"><tspan
     x="6.8432999"
     y="30.116894"
     style="font-size:28px;font-style:normal;font-variant:normal;font-weight:bold;font-stretch:normal;text-align:start;line-height:125%;writing-mode:lr-tb;text-anchor:start;font-family:Sans"
     id="tspan2587">Landkreise und</tspan><tspan
     x="6.8432999"
     y="65.116898"
     style="font-size:28px;font-style:normal;font-variant:normal;font-weight:bold;font-stretch:normal;text-align:start;line-height:125%;writing-mode:lr-tb;text-anchor:start;font-family:Sans"
     id="tspan2589">kreisfreie Städte</tspan><tspan
     x="6.8432999"
     y="100.11689"
     style="font-size:28px;font-style:normal;font-variant:normal;font-weight:bold;font-stretch:normal;text-align:start;line-height:125%;writing-mode:lr-tb;text-anchor:start;font-family:Sans"
     id="tspan2591">in Hessen</tspan></text>
<text
   x="258.68991"
   y="349.74072"
   style="font-size:19px;font-style:normal;font-variant:normal;font-weight:bold;font-stretch:normal;text-align:center;line-height:125%;writing-mode:lr-tb;text-anchor:middle;font-family:Sans"
   id="text2593"><tspan
     x="258.68991"
     y="349.74072"
     id="tspan2597">Regierungsbezirk Gießen</tspan></text>
<text
   x="369.81595"
   y="163.97183"
   style="font-size:19px;font-style:normal;font-variant:normal;font-weight:bold;font-stretch:normal;text-align:center;line-height:125%;writing-mode:lr-tb;text-anchor:middle;font-family:Sans"
   id="text2599"><tspan
     x="373.06302"
     y="163.97183"
     id="tspan2601">Regierungsbezirk </tspan><tspan
     x="369.81595"
     y="187.72183"
     id="tspan2603">Kassel</tspan></text>
<text
   x="242.68991"
   y="519.74072"
   style="font-size:19px;font-style:normal;font-variant:normal;font-weight:bold;font-stretch:normal;text-align:center;line-height:125%;writing-mode:lr-tb;text-anchor:middle;font-family:Sans"
   id="text2605"><tspan
     x="245.93698"
     y="519.74072"
     id="tspan2607">Regierungsbezirk </tspan><tspan
     x="242.68991"
     y="543.49072"
     id="tspan2609">Darmstadt</tspan></text>
</g>
<text
   x="364.63113"
   y="636.47388"
   style="font-size:18px;font-style:normal;font-variant:normal;font-weight:normal;font-stretch:normal;text-align:start;line-height:125%;writing-mode:lr-tb;text-anchor:start;font-family:Sans"
   id="text2636"><tspan
     x="364.63113"
     y="636.47388"
     id="tspan2640">A Hochtaunuskreis</tspan><tspan
     x="364.63113"
     y="658.97388"
     id="tspan2644">B Main-Taunus-Kreis</tspan></text>
<text
   x="172.68991"
   y="499.74072"
   style="font-size:18px;font-style:normal;font-variant:normal;font-weight:normal;font-stretch:normal;text-align:center;line-height:100%;writing-mode:lr-tb;text-anchor:middle;font-family:Sans"
   id="text2646"><tspan
     x="172.68991"
     y="499.74072"
     id="tspan2648">A</tspan></text>
<text
   x="156.68991"
   y="587.74072"
   style="font-size:18px;font-style:normal;font-variant:normal;font-weight:normal;font-stretch:normal;text-align:center;line-height:100%;writing-mode:lr-tb;text-anchor:middle;font-family:Sans"
   id="text2650"><tspan
     x="156.68991"
     y="587.74072"
     id="tspan2652">B</tspan></text>
</g>
</svg>
